<svg id="icon" xmlns="http://www.w3.org/2000/svg" width="32" height="32" viewBox="0 0 32 32"><defs><style>.cls-1{fill:none;}</style></defs><title>model--reference</title><polygon points="4 21 4 23 7.586 23 2 28.586 3.414 30 9 24.414 9 28 11 28 11 21 4 21"/><path d="M23.5,4H8.5L1.7158,13.0454,6.8765,19l1.4681-1.36L5.19,14h4.8666l5.0067,13.3511L16,29.5269,30.2842,13.0454ZM27,12H23V6.6667Zm-6-1.1818-.0692.1844L17.8043,6H21Zm-10,0V6h3.1957l-3.1265,5.0026Zm5-3.9314L19.1957,12H12.8043Zm-7-.22V12H5ZM12.1932,14h7.6136L16,24.1519Zm9.75,0H26.81l-8.5786,9.8987Z"/><rect id="_Transparent_Rectangle_" data-name="&lt;Transparent Rectangle&gt;" class="cls-1" width="32" height="32"/></svg>