<svg id="icon" xmlns="http://www.w3.org/2000/svg" viewBox="0 0 32 32"><defs><style>.cls-1{fill:none;}</style></defs><title>tag</title><path d="M10,14a4,4,0,1,1,4-4A4.0045,4.0045,0,0,1,10,14Zm0-6a2,2,0,1,0,1.998,2.0044A2.002,2.002,0,0,0,10,8Z" transform="translate(0 0)"/><path d="M29.4155,19.4141a2,2,0,0,0,0-2.8282L15.4138,2.5842A1.9945,1.9945,0,0,0,14.0034,2H3.9951A1.9951,1.9951,0,0,0,2,3.9951V14.003a1.9945,1.9945,0,0,0,.5842,1.41l14,14a2.0019,2.0019,0,0,0,2.831,0l10-10ZM4,14.003,3.9951,4,14,3.9985,28.0015,18,18,28.0011Z" transform="translate(0 0)"/><rect id="_Transparent_Rectangle_" data-name="&lt;Transparent Rectangle&gt;" class="cls-1" width="32" height="32"/></svg>