<svg id="icon" xmlns="http://www.w3.org/2000/svg" viewBox="0 0 32 32"><defs><style>.cls-1{fill:none;}</style></defs><title>tools</title><path d="M28.5356,21.4648,21.65,14.5791A9.8732,9.8732,0,0,0,22,12,9.99,9.99,0,0,0,6.4908,3.6626l6.9234,6.9233a2,2,0,0,1-2.8284,2.8282L3.6628,6.4907A9.99,9.99,0,0,0,12,22a9.8811,9.8811,0,0,0,2.5793-.35l6.8851,6.8848a5,5,0,1,0,7.0712-7.07Zm-1.4143,5.6563a2.9994,2.9994,0,0,1-4.2426,0h0l-7.7564-7.7564A7.9983,7.9983,0,0,1,4,12a7.88,7.88,0,0,1,.2789-2.0649l4.893,4.893a4,4,0,1,0,5.6562-5.6562L9.9351,4.2788A7.8732,7.8732,0,0,1,12,4a7.9986,7.9986,0,0,1,7.3649,11.1221l7.7567,7.7568A3,3,0,0,1,27.1213,27.1211Z"/><rect id="_Transparent_Rectangle_" data-name="&lt;Transparent Rectangle&gt;" class="cls-1" width="32" height="32"/></svg>