<?xml version="1.0" encoding="utf-8"?>
<!-- Generator: Adobe Illustrator 23.0.2, SVG Export Plug-In . SVG Version: 6.00 Build 0)  -->
<svg version="1.1" id="Layer_1" xmlns="http://www.w3.org/2000/svg" xmlns:xlink="http://www.w3.org/1999/xlink" x="0px" y="0px"
	 width="24px" height="24px" viewBox="0 0 24 24" style="enable-background:new 0 0 24 24;" xml:space="preserve">
<style type="text/css">
	.st0{fill:none;}
	.st1{opacity:0;fill:#FFFFFF;}
</style>
<rect class="st0" width="24" height="24"/>
<g>
	<path d="M12,1C5.9,1,1,5.9,1,12s4.9,11,11,11s11-4.9,11-11S18.1,1,12,1z M11,8V5h2v3v6h-2V8z M11.9,18.9c-0.5,0-1.3-0.7-1.3-1.4
		s0.7-1.4,1.3-1.4c0.7,0,1.4,0.7,1.4,1.4S12.6,18.9,11.9,18.9z"/>
	<path id="inner-path" class="st1" d="M10.6,17.5c0-0.7,0.7-1.4,1.3-1.4c0.7,0,1.4,0.7,1.4,1.4s-0.7,1.4-1.4,1.4
		C11.4,18.9,10.6,18.2,10.6,17.5z M11,14V8V5h2v3v6H11z"/>
</g>
</svg>
