<svg xmlns="http://www.w3.org/2000/svg" viewBox="0 0 16 16"><path d="M9.09 16H6.91a1 1 0 0 1-1-.8l-.22-1.12A6.34 6.34 0 0 1 4 13.15l-1.41.47a1 1 0 0 1-1.18-.45L.36 11.29A1 1 0 0 1 .56 10l1-.92A6.06 6.06 0 0 1 1.5 8a6.62 6.62 0 0 1 .06-.88l-1-.87A1 1 0 0 1 .36 5l1.09-1.89a1 1 0 0 1 1.18-.45l1.17.39a6.26 6.26 0 0 1 1.91-1.13L5.93.8a1 1 0 0 1 1-.8h2.16a1 1 0 0 1 1 .8l.22 1.12a6.26 6.26 0 0 1 1.89 1.13l1.17-.39a1 1 0 0 1 1.18.45L15.64 5a1 1 0 0 1-.21 1.25l-1 .88a6.62 6.62 0 0 1 .07.87 6.06 6.06 0 0 1-.1 1.12l1 .92a1 1 0 0 1 .2 1.25l-1.09 1.89a1 1 0 0 1-1.18.44L12 13.15a6.34 6.34 0 0 1-1.67.93l-.22 1.12a1 1 0 0 1-1.02.8zm-4.85-4l.22.19a5.53 5.53 0 0 0 1.84 1l.27.09.34 1.72h2.18l.34-1.68.27-.09a5.53 5.53 0 0 0 1.84-1l.22-.19 1.93.66 1.09-1.89-1.48-1.32.06-.29A5.53 5.53 0 0 0 13.5 8a5.78 5.78 0 0 0-.09-1l-.05-.28 1.42-1.24-1.09-1.87-1.69.58-.25-.19A5.62 5.62 0 0 0 9.7 2.77l-.27-.09L9.09 1H6.91l-.34 1.68-.27.09A5.62 5.62 0 0 0 4.25 4L4 4.19l-1.69-.58-1.09 1.88 1.42 1.25-.05.26a5.76 5.76 0 0 0-.09 1 5.53 5.53 0 0 0 .14 1.2l.06.29-1.48 1.3 1.09 1.89z"/><path d="M8 11a3 3 0 1 1 3-3 3 3 0 0 1-3 3zm0-5a2 2 0 1 0 2 2 2 2 0 0 0-2-2z"/></svg>