<svg xmlns="http://www.w3.org/2000/svg" viewBox="0 0 16 16"><path d="M2.9 11C2 10.2 1.4 9.2 1 8c1-3 3.8-5 7-5 .8 0 1.7.2 2.4.5l.8-.8C10.2 2.2 9.1 2 8 2 4.3 2 1 4.4 0 8c.4 1.4 1.1 2.7 2.2 3.7l.7-.7zM13 3.7l2-2-.7-.7L1 14.3l.7.7 2.1-2.1C5.1 13.6 6.5 14 8 14c3.7 0 7-2.4 8-6-.5-1.7-1.5-3.3-3-4.3zM10 8c0 1.1-.9 2-2 2-.4 0-.7-.1-1-.3L9.7 7c.2.3.3.6.3 1zm-2 5c-1.2 0-2.4-.3-3.4-.9l1.7-1.7c.5.4 1.1.6 1.7.6 1.7 0 3-1.3 3-3 0-.6-.2-1.2-.6-1.7l1.9-1.9c1.3.9 2.2 2.1 2.7 3.6-1 3-3.8 5-7 5z"/><path d="M5 8c0 .3 0 .5.1.8l.9-.9c.1-1 .9-1.8 1.9-1.9l.9-.9C8.5 5 8.3 5 8 5 6.3 5 5 6.3 5 8z"/></svg>