<svg id="Layer_1" data-name="Layer 1" xmlns="http://www.w3.org/2000/svg" viewBox="0 0 16 16"><defs><style>.cls-1{fill:#fff;opacity:0;}.cls-2{fill:none;}</style></defs><title>warning--filled</title><path id="Compound_Path" data-name="Compound Path" d="M8,1a7,7,0,1,0,7,7A7.0078,7.0078,0,0,0,8,1ZM7.4375,4h1.125V9H7.4375ZM8,11.8a.736.736,0,0,1-.8-.8.8.8,0,1,1,.8.8Z"/><path id="inner-path" class="cls-1" d="M8.8,11a.7887.7887,0,0,1-.8.8.736.736,0,0,1-.8-.8.8.8,0,0,1,1.6,0ZM8.5625,4H7.4375V9h1.125Z"/><rect id="Transparent_Rectangle" data-name="Transparent Rectangle" class="cls-2" width="16" height="16"/></svg>