<?xml version="1.0" encoding="utf-8"?>
<!-- Generator: Adobe Illustrator 23.0.1, SVG Export Plug-In . SVG Version: 6.00 Build 0)  -->
<svg version="1.1" id="Layer_1" xmlns="http://www.w3.org/2000/svg" xmlns:xlink="http://www.w3.org/1999/xlink" x="0px" y="0px"
	 width="16px" height="16px" viewBox="0 0 16 16" style="enable-background:new 0 0 16 16;" xml:space="preserve">
<path d="M14.5,14h-13c-0.2,0-0.3-0.1-0.4-0.2c-0.1-0.2-0.1-0.3,0-0.5l6.5-12C7.7,1,8,0.9,8.2,1.1c0.1,0,0.2,0.1,0.2,0.2l6.5,12
	c0.1,0.2,0.1,0.3,0,0.5C14.9,13.9,14.7,14,14.5,14z M2.3,13h11.3L8,3.3L2.3,13z"/>
<path d="M7.5,6h1v4h-1V6z"/>
<circle cx="8" cy="11.5" r="0.8"/>
</svg>
