<?xml version="1.0" encoding="utf-8"?>
<!-- Generator: Adobe Illustrator 23.0.1, SVG Export Plug-In . SVG Version: 6.00 Build 0)  -->
<svg version="1.1" id="Layer_1" xmlns="http://www.w3.org/2000/svg" xmlns:xlink="http://www.w3.org/1999/xlink" x="0px" y="0px"
	 width="20px" height="20px" viewBox="0 0 20 20" style="enable-background:new 0 0 20 20;" xml:space="preserve">
<path d="M17.8,5.5l-3.3-3.3C14.3,2.1,14.2,2,14,2H3.3C2.6,2,2,2.6,2,3.3v13.3C2,17.4,2.6,18,3.3,18h13.3c0.7,0,1.3-0.6,1.3-1.3V6
	C18,5.8,17.9,5.7,17.8,5.5z M7.3,3.3h5.3v3.3H7.3V3.3z M12.7,16.7H7.3v-5.3h5.3V16.7z M14,16.7v-5.3c0-0.7-0.6-1.3-1.3-1.3H7.3
	C6.6,10,6,10.6,6,11.3v5.3H3.3V3.3H6v3.3C6,7.4,6.6,8,7.3,8h5.3C13.4,8,14,7.4,14,6.7v-3l2.7,2.7v10.4H14z"/>
</svg>
