<?xml version="1.0" encoding="utf-8"?>
<!-- Generator: Adobe Illustrator 23.0.2, SVG Export Plug-In . SVG Version: 6.00 Build 0)  -->
<svg version="1.1" id="Layer_1" xmlns="http://www.w3.org/2000/svg" xmlns:xlink="http://www.w3.org/1999/xlink" x="0px" y="0px"
	 width="20px" height="20px" viewBox="0 0 20 20" style="enable-background:new 0 0 20 20;" xml:space="preserve">
<style type="text/css">
	.st0{fill:none;}
	.st1{opacity:0;fill:#FFFFFF;fill-opacity:0;}
</style>
<rect id="Transparent_Rectangle" class="st0" width="20" height="20"/>
<path id="Compound_Path" d="M10,1c-5,0-9,4-9,9s4,9,9,9s9-4,9-9C19,5,15,1,10,1z M9.2,5h1.5v7H9.2V5z M10,16c-0.6,0-1-0.4-1-1
	s0.4-1,1-1s1,0.4,1,1S10.6,16,10,16z"/>
<path id="inner-path" class="st1" d="M11,15c0,0.6-0.4,1-1,1s-1-0.4-1-1s0.4-1,1-1S11,14.4,11,15z M9.2,12h1.5V5H9.2V12z"/>
</svg>
